<svg width="122" height="122" viewBox="0 0 122 122" fill="none" xmlns="http://www.w3.org/2000/svg">
<path d="M44.0188 47.5266C44.271 47.9279 44.8033 48.0487 45.2042 47.7963C45.6051 47.5439 45.7258 47.0109 45.4736 46.6096C45.1525 46.1004 44.9197 45.4445 44.7861 44.6958C45.5318 44.8296 46.1891 45.0648 46.6978 45.3841C47.0986 45.6365 47.631 45.5157 47.8832 45.1144C48.1353 44.7131 48.0146 44.1801 47.6138 43.9277C46.8185 43.4271 45.7947 43.0862 44.6567 42.933C44.6848 41.6881 44.952 40.3525 45.5016 39.0989C46.1546 37.6102 47.2064 36.2379 48.7259 35.2821C49.9242 34.5269 51.4221 34.0242 53.2583 33.9142C54.9588 34.007 56.5796 34.2572 57.9977 34.7168C60.3879 35.4935 62.1832 36.8766 62.7177 39.1399C62.7932 39.4636 62.847 39.8045 62.8729 40.1626C62.9656 41.4443 62.4483 42.7863 61.3427 43.8479C60.3146 44.836 58.7844 45.5869 56.7606 45.8501C56.2908 45.9105 55.9567 46.3399 56.0171 46.8103C56.0365 46.9591 56.0925 47.0929 56.1744 47.2073C57.8684 49.7123 58.3469 52.0705 57.9568 53.9477C57.7456 54.9682 57.2714 55.8464 56.599 56.5217C55.9265 57.1949 55.0494 57.6696 54.0278 57.881C52.1484 58.2715 49.7841 57.7904 47.2732 56.0794C46.881 55.814 46.3465 55.9154 46.0814 56.3081C46.0038 56.4246 45.9564 56.5519 45.9391 56.6814C45.6762 58.7052 44.9283 60.2393 43.9391 61.2685C42.8787 62.3753 41.5381 62.8932 40.2579 62.8004C39.9001 62.7745 39.5596 62.7227 39.2363 62.645C36.9754 62.11 35.5939 60.3105 34.818 57.9199C34.359 56.5001 34.109 54.8776 34.0163 53.1752C34.1262 51.337 34.6284 49.8374 35.3827 48.6378C36.3396 47.1167 37.7082 46.0637 39.1954 45.41C40.4475 44.8598 41.7795 44.5922 43.0252 44.5642C43.1782 45.7034 43.5188 46.7283 44.0188 47.5244V47.5266ZM43.924 38.4128C43.2903 39.8606 42.9757 41.4033 42.9369 42.8467C41.495 42.8856 39.9562 43.2006 38.5078 43.8349C36.8785 44.5512 35.3633 45.6732 34.2318 47.2677C34.4323 45.5222 34.7361 43.8435 35.0853 42.3634C35.7017 39.757 35.9905 37.6447 36.0444 35.9488C37.7384 35.8949 39.8462 35.6057 42.4519 34.9887C43.9326 34.6391 45.6072 34.3349 47.3508 34.1342C45.7581 35.267 44.6374 36.7838 43.9218 38.415L43.924 38.4128ZM53.3165 32.1924L53.2864 32.1902C51.8682 32.1147 50.4113 32.1428 48.9716 32.2463C46.5124 32.4233 44.1072 32.8224 42.064 33.3057C39.5165 33.9099 37.538 34.2119 36.0207 34.3025C35.8095 31.3509 34.7038 30.0973 33.527 29.819C32.5378 29.5838 31.5162 29.9959 30.8093 30.7036C30.1024 31.4113 29.6929 32.434 29.9256 33.4244C30.2037 34.6025 31.458 35.7093 34.4042 35.9208C34.3137 37.4397 34.012 39.4204 33.4085 41.9707C32.9257 44.0162 32.527 46.4262 32.3503 48.8859C32.2468 50.3272 32.2188 51.7857 32.2942 53.2055L32.2964 53.2357C32.3955 55.0891 32.6714 56.8713 33.18 58.4463C34.1348 61.3958 35.9 63.6289 38.844 64.3258C39.2514 64.4229 39.6803 64.4877 40.135 64.52C41.911 64.6473 43.7472 63.9526 45.1762 62.4616C46.174 61.4217 46.9736 59.9912 47.4047 58.1852C49.9414 59.6179 52.3596 59.9847 54.3748 59.564C55.7347 59.2813 56.9072 58.6448 57.8145 57.7386C58.7197 56.8324 59.3555 55.6565 59.6379 54.2951C60.056 52.2777 59.6896 49.8547 58.2607 47.3173C60.0646 46.8858 61.4936 46.0853 62.5324 45.0863C64.0217 43.6558 64.7156 41.8175 64.5885 40.0397C64.5562 39.5844 64.4893 39.155 64.3945 38.7472C63.6984 35.8021 61.4677 34.035 58.5215 33.077C56.9481 32.5657 55.1679 32.2916 53.3165 32.1924ZM99.4733 1.81741C99.9475 1.81741 100.331 1.43336 100.331 0.958679C100.331 0.484001 99.9475 0.0999451 99.4733 0.0999451L13.1686 0.110733C12.5673 0.0654221 11.9659 0.0352173 11.3668 0.0222702C11.2224 0.0201111 11.0866 0.052475 10.9681 0.112892H5.57994C4.4161 0.041687 3.18977 0.00285339 1.89446 -0.00146484C1.73929 -0.00146484 1.59273 0.0395279 1.46772 0.112892H0.857789C0.383634 0.112892 0 0.496948 0 0.971626L0.241388 99.4454C0.241388 99.9201 0.625022 100.304 1.09918 100.304C1.57333 100.304 1.95697 99.9201 1.95697 99.4454L1.93972 92.7007C1.97636 92.7848 2.01516 92.8711 2.05826 92.9553C3.41607 95.7063 5.65753 97.3266 8.04123 97.8078C9.4055 98.084 10.8086 97.9869 12.119 97.5187C12.5543 97.3633 12.9789 97.167 13.3884 96.9275L13.4401 112.659C13.4401 113.133 13.8238 113.517 14.2979 113.517C14.7721 113.517 15.1557 113.133 15.1557 112.659L15.0997 95.5919C15.2807 95.4085 15.4553 95.2122 15.6256 95.0072C17.5631 92.6403 18.6192 88.8472 17.714 83.6516C17.6342 83.1834 17.1903 82.8663 16.7204 82.9461C16.2527 83.0259 15.9359 83.4704 16.0157 83.9408C16.826 88.5883 15.9445 91.9024 14.2979 93.9154C13.5177 94.8669 12.5629 95.5272 11.537 95.894C10.5155 96.2586 9.42706 96.3341 8.3753 96.1227C6.48945 95.7408 4.70275 94.4311 3.59711 92.1937C2.80182 90.5819 3.39667 88.8191 4.52818 87.5871C5.0519 87.0154 5.6877 86.5601 6.35152 86.2839C6.97438 86.025 7.61665 85.9279 8.20288 86.0531C9.1986 86.2667 10.0887 87.1686 10.5155 89.0781C10.6168 89.5419 11.0758 89.8354 11.5392 89.7318C12.0026 89.6304 12.2957 89.1708 12.1922 88.7069C11.5909 86.0164 10.1814 84.7132 8.55849 84.3658C7.61665 84.1651 6.62523 84.3032 5.69201 84.6916C4.79974 85.0627 3.95273 85.6669 3.26305 86.4199C2.70053 87.0326 2.23715 87.749 1.92895 88.5214L1.76515 21.7581C2.99364 25.7519 4.80189 29.5169 6.96145 32.693C8.55634 35.2562 10.1017 38.2531 11.2439 41.2026C12.3086 43.9557 13.022 46.6571 13.0867 48.8988C13.1406 50.7307 12.8668 52.7437 12.0263 55.0028C11.3107 56.923 10.19 59.0246 8.51323 61.344C7.1662 63.0399 6.04116 64.7638 5.28467 66.1728C5.12518 66.4209 5.09716 66.7424 5.23725 67.025C6.15323 68.8633 7.68993 71.2755 9.55422 73.4914C11.259 75.5174 13.2418 77.3838 15.285 78.5143C17.4683 79.7226 19.7313 80.1131 21.8478 79.0581C22.2831 78.8401 22.7163 78.5553 23.1431 78.195C24.2853 77.2306 24.9815 75.744 24.9707 74.02C24.9621 72.5485 24.4362 70.9066 23.2271 69.2927C22.9426 68.9129 22.4038 68.8353 22.0245 69.1201C21.6452 69.4049 21.5676 69.9443 21.8521 70.324C22.8241 71.6207 23.2444 72.9024 23.2508 74.0265C23.2594 75.224 22.7961 76.2402 22.0353 76.881C21.7292 77.1399 21.4081 77.3492 21.0762 77.5154C19.5416 78.2813 17.8196 77.9512 16.1105 77.0062C14.2613 75.9835 12.4423 74.2638 10.8646 72.3867C9.23308 70.447 7.8645 68.3433 6.97869 66.6517C7.47225 65.7714 8.10589 64.7768 8.84514 63.7519C9.18567 63.3182 9.51111 62.8889 9.81716 62.4681C10.1986 61.987 10.6017 61.5058 11.0198 61.0355C12.6535 59.1972 14.5199 57.525 16.3907 56.5562C18.1256 55.6565 19.8585 55.3739 21.3693 56.1808C21.6818 56.3469 21.9943 56.567 22.3068 56.8454C23.0504 57.5078 23.4857 58.5348 23.4469 59.7301C23.4103 60.8542 22.9534 62.1251 21.9469 63.3959C21.6538 63.7692 21.7163 64.3086 22.0891 64.602C22.462 64.8954 23.0008 64.8329 23.2939 64.4596C24.5461 62.8781 25.1151 61.2512 25.1647 59.7819C25.2229 58.0558 24.5677 56.5498 23.4534 55.5551C23.0482 55.1948 22.6236 54.8992 22.1797 54.6618C20.0912 53.5464 17.8196 53.8765 15.604 55.0243C14.8109 55.4343 14.0264 55.9521 13.2612 56.5433C13.397 56.2261 13.5199 55.9133 13.6363 55.6026C14.563 53.1127 14.8647 50.8839 14.8044 48.8514C14.7333 46.396 13.9789 43.5005 12.8474 40.5812C12.5586 39.8368 12.2461 39.0903 11.9142 38.3481C12.8905 39.1874 13.8992 39.9037 14.9251 40.4798C16.8713 41.5737 18.8886 42.1628 20.8994 42.1174C23.1689 42.0657 25.3974 41.2112 27.4643 39.3708C28.3566 38.5768 28.7898 37.7224 28.8071 36.7903C28.8243 35.9013 28.445 35.0059 27.7122 34.0803C25.0612 30.7274 21.3542 29.1847 17.5114 27.588C9.9163 24.4314 1.76515 21.0418 1.71773 1.89293V1.8282H5.47649C21.4684 2.83581 24.6172 10.4242 27.5635 17.5249C29.1584 21.3719 30.6994 25.083 34.0486 27.7369C34.9732 28.4705 35.8676 28.8502 36.7556 28.833C37.6867 28.8157 38.5402 28.382 39.3333 27.4888C41.1717 25.4196 42.0252 23.1908 42.0769 20.9167C42.1222 18.9036 41.5338 16.8841 40.4411 14.9357C39.857 13.8936 39.1285 12.8709 38.2772 11.8806C39.0359 12.2215 39.7988 12.5429 40.5575 12.8364C43.4735 13.967 46.3659 14.7243 48.8185 14.7955C50.8488 14.8538 53.0751 14.5517 55.5623 13.6261C55.8856 13.5052 56.211 13.3758 56.5429 13.2334C55.9847 13.967 55.4955 14.72 55.1032 15.4773C53.9566 17.6953 53.6269 19.9695 54.7412 22.0602C54.9782 22.5025 55.2735 22.9297 55.6334 23.3354C56.6248 24.4509 58.1314 25.1068 59.8556 25.0485C61.3233 24.9989 62.9483 24.4293 64.5281 23.1757C64.901 22.8823 64.9635 22.3407 64.6704 21.9696C64.3773 21.5963 63.8363 21.5337 63.4656 21.8272C62.1962 22.8348 60.9267 23.29 59.8038 23.3289C58.612 23.3699 57.5839 22.9319 56.9223 22.1875C56.6464 21.8768 56.4266 21.5639 56.2585 21.2489C55.4524 19.7365 55.7347 18.0017 56.6335 16.2648C57.6012 14.392 59.2715 12.5235 61.1078 10.888C61.4483 10.5838 61.7953 10.2882 62.1444 10.0034C62.6682 9.628 63.2005 9.22668 63.7458 8.79731C63.791 8.76064 63.8342 8.71964 63.8708 8.67648C64.8773 7.95152 65.8536 7.33013 66.7179 6.84251C68.4076 7.72929 70.509 9.10154 72.4465 10.7327C74.3216 12.3142 76.0393 14.1353 77.0609 15.9843C78.0049 17.6953 78.3347 19.4193 77.5695 20.9555C77.4036 21.2878 77.1945 21.6093 76.9359 21.9156C76.2958 22.6773 75.2807 23.139 74.0845 23.1325C72.9616 23.1261 71.6814 22.7032 70.3861 21.7322C70.0068 21.4474 69.468 21.5251 69.1835 21.9049C68.899 22.2846 68.9766 22.824 69.3559 23.1088C70.9702 24.3192 72.6103 24.8435 74.078 24.8543C75.8001 24.8651 77.2872 24.1682 78.2485 23.0247C78.6084 22.5975 78.8929 22.1638 79.1105 21.7279C80.1666 19.6091 79.7744 17.3458 78.5674 15.158C77.4381 13.1104 75.5738 11.1254 73.55 9.42087C71.3366 7.55452 68.927 6.01614 67.0907 5.09915C66.8084 4.95891 66.4873 4.98695 66.2394 5.14662C64.7286 5.96004 62.8535 7.19852 61.041 8.6808C58.8254 10.2559 56.8124 11.3239 54.9632 12.0143C52.7066 12.8558 50.6958 13.1298 48.866 13.0759C46.6245 13.0111 43.9283 12.2991 41.1782 11.2311C37.9431 9.97753 34.6564 8.23633 31.9429 6.47787C31.9128 6.45845 31.8804 6.44119 31.8503 6.42393C28.9127 4.53601 25.5203 2.94801 21.9426 1.82388L88.4967 1.81741C87.7509 2.12595 87.0613 2.57905 86.4664 3.12493C85.7142 3.81537 85.1108 4.66331 84.7401 5.55656C84.3521 6.49081 84.2142 7.48548 84.4146 8.4262C84.7595 10.0509 86.0634 11.4598 88.751 12.0639C89.2144 12.1654 89.6734 11.8741 89.7747 11.4102C89.876 10.9463 89.5851 10.4867 89.1217 10.3853C87.2143 9.95811 86.3112 9.06702 86.1 8.07019C85.975 7.48548 86.072 6.84251 86.3306 6.2168C86.6065 5.55225 87.0613 4.91791 87.6324 4.39145C88.8652 3.2587 90.626 2.6632 92.2339 3.45936C94.4689 4.56406 95.7771 6.35273 96.1586 8.24281C96.3719 9.29572 96.2943 10.3853 95.9301 11.408C95.5637 12.4351 94.9064 13.3909 93.9538 14.1719C91.9451 15.8204 88.6346 16.7028 83.99 15.8916C83.5223 15.8117 83.0762 16.1267 82.9965 16.5971C82.9167 17.0653 83.2314 17.5119 83.7012 17.5918C88.8932 18.498 92.68 17.4429 95.0443 15.501C95.2491 15.3327 95.4452 15.1558 95.6284 14.9746L112.676 15.0307C113.151 15.0307 113.534 14.6466 113.534 14.1719C113.534 13.6973 113.151 13.3132 112.676 13.3132L96.9625 13.2614C97.1996 12.8515 97.3957 12.4264 97.553 11.9906C98.0207 10.6788 98.1177 9.27415 97.8418 7.90837C97.359 5.52204 95.7426 3.27812 92.9947 1.91882C92.9235 1.8843 92.8524 1.84978 92.7791 1.81741H99.4777H99.4733ZM104.756 8.09177C104.282 8.09177 103.898 8.47583 103.898 8.9505C103.898 9.42518 104.282 9.80923 104.756 9.80923H121.142C121.616 9.80923 122 9.42518 122 8.9505C122 8.47583 121.616 8.09177 121.142 8.09177H104.756ZM33.1348 31.4998C33.7641 31.6487 34.318 32.4405 34.4193 34.3198C32.5421 34.2184 31.7511 33.6639 31.6024 33.0339C31.5162 32.6649 31.7102 32.2442 32.027 31.9248C32.346 31.6055 32.7662 31.4113 33.1348 31.4998ZM9.94216 104.732C9.94216 104.255 9.55637 103.869 9.08006 103.869C8.60375 103.869 8.21796 104.255 8.21796 104.732V121.136C8.21796 121.613 8.60375 121.999 9.08006 121.999C9.55637 121.999 9.94216 121.613 9.94216 121.136V104.732ZM8.38607 31.7285C8.2352 31.4868 8.08434 31.2495 7.93347 31.0165C7.90114 30.969 7.86666 30.9237 7.82786 30.8849C5.16398 26.7228 3.13158 21.6136 2.23499 16.3792C5.34933 24.3969 11.2418 26.848 16.8497 29.1804C20.4856 30.6928 23.9965 32.1514 26.363 35.1462C26.8458 35.7568 27.0958 36.294 27.0872 36.7644C27.0785 37.1916 26.8307 37.6274 26.3177 38.0849C24.5741 39.6383 22.7271 40.3568 20.865 40.4C19.1774 40.4388 17.4532 39.9253 15.7656 38.9781C14.035 38.005 12.3453 36.5745 10.7719 34.8053C9.93785 33.8667 9.14041 32.8375 8.38607 31.7307V31.7285ZM16.3648 2.23383C23.3888 3.43994 30.1843 6.69794 34.7685 10.7802C36.5358 12.3552 37.9647 14.0446 38.9367 15.7794C39.885 17.4688 40.3958 19.1949 40.357 20.8843C40.3139 22.7463 39.5962 24.5976 38.0444 26.3431C37.5875 26.8566 37.1522 27.1047 36.7254 27.1133C36.2556 27.122 35.7189 26.8717 35.109 26.3884C32.1175 24.0172 30.6606 20.5046 29.1497 16.8647C26.8221 11.2505 24.3737 5.35159 16.3626 2.23383H16.3648Z" fill="white"/>
</svg>
